<svg xmlns="http://www.w3.org/2000/svg" xmlns:xlink="http://www.w3.org/1999/xlink" width="0" height="0" style="display:none;"><symbol viewBox="0 0 24 24" id="arrow-up-line"><path d="M13.0001 7.82843V20H11.0001V7.82843L5.63614 13.1924L4.22192 11.7782L12.0001 4L19.7783 11.7782L18.3641 13.1924L13.0001 7.82843Z"></path></symbol><symbol viewBox="0 0 24 24" id="arrow-down-line"><path d="M13.0001 16.1716L18.3641 10.8076L19.7783 12.2218L12.0001 20L4.22192 12.2218L5.63614 10.8076L11.0001 16.1716V4H13.0001V16.1716Z"></path></symbol><symbol viewBox="0 0 24 24" id="skip-up-line"><path d="M12 13.9142L16.7929 18.7071L18.2071 17.2929L12 11.0858L5.79289 17.2929L7.20711 18.7071L12 13.9142ZM6 7L18 7V9L6 9L6 7Z"></path></symbol><symbol viewBox="0 0 24 24" id="skip-down-line"><path d="M12 10.0858L7.20711 5.29291L5.79289 6.70712L12 12.9142L18.2071 6.70712L16.7929 5.29291L12 10.0858ZM18 17L6 17L6 15L18 15V17Z"></path></symbol><symbol viewBox="0 0 24 24" id="close-line"><path d="M11.9997 10.5865L16.9495 5.63672L18.3637 7.05093L13.4139 12.0007L18.3637 16.9504L16.9495 18.3646L11.9997 13.4149L7.04996 18.3646L5.63574 16.9504L10.5855 12.0007L5.63574 7.05093L7.04996 5.63672L11.9997 10.5865Z"></path></symbol><symbol viewBox="0 0 24 24" id="calendar-schedule-line"><path d="M7 3V1H9V3H15V1H17V3H21C21.5523 3 22 3.44772 22 4V9H20V5H17V7H15V5H9V7H7V5H4V19H10V21H3C2.44772 21 2 20.5523 2 20V4C2 3.44772 2.44772 3 3 3H7ZM17 12C14.7909 12 13 13.7909 13 16C13 18.2091 14.7909 20 17 20C19.2091 20 21 18.2091 21 16C21 13.7909 19.2091 12 17 12ZM11 16C11 12.6863 13.6863 10 17 10C20.3137 10 23 12.6863 23 16C23 19.3137 20.3137 22 17 22C13.6863 22 11 19.3137 11 16ZM16 13V16.4142L18.2929 18.7071L19.7071 17.2929L18 15.5858V13H16Z"></path></symbol><symbol viewBox="0 0 24 24" id="refresh-line"><path d="M5.46257 4.43262C7.21556 2.91688 9.5007 2 12 2C17.5228 2 22 6.47715 22 12C22 14.1361 21.3302 16.1158 20.1892 17.7406L17 12H20C20 7.58172 16.4183 4 12 4C9.84982 4 7.89777 4.84827 6.46023 6.22842L5.46257 4.43262ZM18.5374 19.5674C16.7844 21.0831 14.4993 22 12 22C6.47715 22 2 17.5228 2 12C2 9.86386 2.66979 7.88416 3.8108 6.25944L7 12H4C4 16.4183 7.58172 20 12 20C14.1502 20 16.1022 19.1517 17.5398 17.7716L18.5374 19.5674Z"></path></symbol><symbol viewBox="0 0 24 24" id="home-line"><path d="M21 20C21 20.5523 20.5523 21 20 21H4C3.44772 21 3 20.5523 3 20V9.48907C3 9.18048 3.14247 8.88917 3.38606 8.69972L11.3861 2.47749C11.7472 2.19663 12.2528 2.19663 12.6139 2.47749L20.6139 8.69972C20.8575 8.88917 21 9.18048 21 9.48907V20ZM19 19V9.97815L12 4.53371L5 9.97815V19H19Z"></path></symbol><symbol viewBox="0 0 24 24" id="save-line"><path d="M7 19V13H17V19H19V7.82843L16.1716 5H5V19H7ZM4 3H17L21 7V20C21 20.5523 20.5523 21 20 21H4C3.44772 21 3 20.5523 3 20V4C3 3.44772 3.44772 3 4 3ZM9 15V19H15V15H9Z"></path></symbol><symbol viewBox="0 0 24 24" id="delete-bin-line"><path d="M17 6H22V8H20V21C20 21.5523 19.5523 22 19 22H5C4.44772 22 4 21.5523 4 21V8H2V6H7V3C7 2.44772 7.44772 2 8 2H16C16.5523 2 17 2.44772 17 3V6ZM18 8H6V20H18V8ZM9 11H11V17H9V11ZM13 11H15V17H13V11ZM9 4V6H15V4H9Z"></path></symbol><symbol viewBox="0 0 24 24" id="focus-2-line"><path d="M12 20C16.4183 20 20 16.4183 20 12C20 7.58172 16.4183 4 12 4C7.58172 4 4 7.58172 4 12C4 16.4183 7.58172 20 12 20ZM12 22C6.47715 22 2 17.5228 2 12C2 6.47715 6.47715 2 12 2C17.5228 2 22 6.47715 22 12C22 17.5228 17.5228 22 12 22ZM12 16C14.2091 16 16 14.2091 16 12C16 9.79086 14.2091 8 12 8C9.79086 8 8 9.79086 8 12C8 14.2091 9.79086 16 12 16ZM12 18C8.68629 18 6 15.3137 6 12C6 8.68629 8.68629 6 12 6C15.3137 6 18 8.68629 18 12C18 15.3137 15.3137 18 12 18ZM12 14C10.8954 14 10 13.1046 10 12C10 10.8954 10.8954 10 12 10C13.1046 10 14 10.8954 14 12C14 13.1046 13.1046 14 12 14Z"></path></symbol><symbol viewBox="0 0 24 24" id="calendar-line"><path d="M9 1V3H15V1H17V3H21C21.5523 3 22 3.44772 22 4V20C22 20.5523 21.5523 21 21 21H3C2.44772 21 2 20.5523 2 20V4C2 3.44772 2.44772 3 3 3H7V1H9ZM20 11H4V19H20V11ZM7 5H4V9H20V5H17V7H15V5H9V7H7V5Z"></path></symbol><symbol viewBox="0 0 24 24" id="arrow-right-circle-line"><path d="M12 11V8L16 12L12 16V13H8V11H12ZM12 2C17.52 2 22 6.48 22 12C22 17.52 17.52 22 12 22C6.48 22 2 17.52 2 12C2 6.48 6.48 2 12 2ZM12 20C16.42 20 20 16.42 20 12C20 7.58 16.42 4 12 4C7.58 4 4 7.58 4 12C4 16.42 7.58 20 12 20Z"></path></symbol><symbol viewBox="0 0 24 24" id="pencil-line"><path d="M15.7279 9.57627L14.3137 8.16206L5 17.4758V18.89H6.41421L15.7279 9.57627ZM17.1421 8.16206L18.5563 6.74785L17.1421 5.33363L15.7279 6.74785L17.1421 8.16206ZM7.24264 20.89H3V16.6473L16.435 3.21231C16.8256 2.82179 17.4587 2.82179 17.8492 3.21231L20.6777 6.04074C21.0682 6.43126 21.0682 7.06443 20.6777 7.45495L7.24264 20.89Z"></path></symbol><symbol viewBox="0 0 24 24" id="download-line"><path d="M3 19H21V21H3V19ZM13 13.1716L19.0711 7.1005L20.4853 8.51472L12 17L3.51472 8.51472L4.92893 7.1005L11 13.1716V2H13V13.1716Z"></path></symbol><symbol viewBox="0 0 24 24" id="upload-line"><path d="M3 19H21V21H3V19ZM13 5.82843V17H11V5.82843L4.92893 11.8995L3.51472 10.4853L12 2L20.4853 10.4853L19.0711 11.8995L13 5.82843Z"></path></symbol><symbol viewBox="0 0 24 24" id="fullscreen-line"><path d="M8 3V5H4V9H2V3H8ZM2 21V15H4V19H8V21H2ZM22 21H16V19H20V15H22V21ZM22 9H20V5H16V3H22V9Z"></path></symbol><symbol viewBox="0 0 24 24" id="fullscreen-exit-line"><path d="M18 7H22V9H16V3H18V7ZM8 9H2V7H6V3H8V9ZM18 17V21H16V15H22V17H18ZM8 15V21H6V17H2V15H8Z"></path></symbol><symbol viewBox="0 0 24 24" id="shape-line"><path d="M7.82929 20C7.41746 21.1652 6.30622 22 5 22C3.34315 22 2 20.6569 2 19C2 17.6938 2.83481 16.5825 4 16.1707V7.82929C2.83481 7.41746 2 6.30622 2 5C2 3.34315 3.34315 2 5 2C6.30622 2 7.41746 2.83481 7.82929 4H16.1707C16.5825 2.83481 17.6938 2 19 2C20.6569 2 22 3.34315 22 5C22 6.30622 21.1652 7.41746 20 7.82929V16.1707C21.1652 16.5825 22 17.6938 22 19C22 20.6569 20.6569 22 19 22C17.6938 22 16.5825 21.1652 16.1707 20H7.82929ZM7.82929 18H16.1707C16.472 17.1476 17.1476 16.472 18 16.1707V7.82929C17.1476 7.52801 16.472 6.85241 16.1707 6H7.82929C7.52801 6.85241 6.85241 7.52801 6 7.82929V16.1707C6.85241 16.472 7.52801 17.1476 7.82929 18ZM5 6C5.55228 6 6 5.55228 6 5C6 4.44772 5.55228 4 5 4C4.44772 4 4 4.44772 4 5C4 5.55228 4.44772 6 5 6ZM19 6C19.5523 6 20 5.55228 20 5C20 4.44772 19.5523 4 19 4C18.4477 4 18 4.44772 18 5C18 5.55228 18.4477 6 19 6ZM19 20C19.5523 20 20 19.5523 20 19C20 18.4477 19.5523 18 19 18C18.4477 18 18 18.4477 18 19C18 19.5523 18.4477 20 19 20ZM5 20C5.55228 20 6 19.5523 6 19C6 18.4477 5.55228 18 5 18C4.44772 18 4 18.4477 4 19C4 19.5523 4.44772 20 5 20Z"></path></symbol><symbol viewBox="0 0 24 24" id="route-line"><path d="M4 15V8.5C4 6.01472 6.01472 4 8.5 4C10.9853 4 13 6.01472 13 8.5V15.5C13 16.8807 14.1193 18 15.5 18C16.8807 18 18 16.8807 18 15.5V8.82929C16.8348 8.41746 16 7.30622 16 6C16 4.34315 17.3431 3 19 3C20.6569 3 22 4.34315 22 6C22 7.30622 21.1652 8.41746 20 8.82929V15.5C20 17.9853 17.9853 20 15.5 20C13.0147 20 11 17.9853 11 15.5V8.5C11 7.11929 9.88071 6 8.5 6C7.11929 6 6 7.11929 6 8.5V15H9L5 20L1 15H4ZM19 7C19.5523 7 20 6.55228 20 6C20 5.44772 19.5523 5 19 5C18.4477 5 18 5.44772 18 6C18 6.55228 18.4477 7 19 7Z"></path></symbol><symbol viewBox="0 0 24 24" id="time-line"><path d="M12 22C6.47715 22 2 17.5228 2 12C2 6.47715 6.47715 2 12 2C17.5228 2 22 6.47715 22 12C22 17.5228 17.5228 22 12 22ZM12 20C16.4183 20 20 16.4183 20 12C20 7.58172 16.4183 4 12 4C7.58172 4 4 7.58172 4 12C4 16.4183 7.58172 20 12 20ZM13 12H17V14H11V7H13V12Z"></path></symbol><symbol viewBox="0 0 24 24" id="check-line"><path d="M9.9997 15.1709L19.1921 5.97852L20.6063 7.39273L9.9997 17.9993L3.63574 11.6354L5.04996 10.2212L9.9997 15.1709Z"></path></symbol><symbol viewBox="0 0 24 24" id="checkbox-circle-line"><path d="M4 12C4 7.58172 7.58172 4 12 4C16.4183 4 20 7.58172 20 12C20 16.4183 16.4183 20 12 20C7.58172 20 4 16.4183 4 12ZM12 2C6.47715 2 2 6.47715 2 12C2 17.5228 6.47715 22 12 22C17.5228 22 22 17.5228 22 12C22 6.47715 17.5228 2 12 2ZM17.4571 9.45711L16.0429 8.04289L11 13.0858L8.20711 10.2929L6.79289 11.7071L11 15.9142L17.4571 9.45711Z"></path></symbol><symbol viewBox="0 0 24 24" id="add-line"><path d="M11 11V5H13V11H19V13H13V19H11V13H5V11H11Z"></path></symbol><symbol viewBox="0 0 24 24" id="reset-left-line"><path d="M22 12C22 17.5228 17.5229 22 12 22C6.4772 22 2 17.5228 2 12C2 6.47715 6.4772 2 12 2V4C7.5817 4 4 7.58172 4 12C4 16.4183 7.5817 20 12 20C16.4183 20 20 16.4183 20 12C20 9.25022 18.6127 6.82447 16.4998 5.38451L16.5 8H14.5V2L20.5 2V4L18.0008 3.99989C20.4293 5.82434 22 8.72873 22 12Z"></path></symbol><symbol viewBox="0 0 24 24" id="search-line"><path d="M18.031 16.6168L22.3137 20.8995L20.8995 22.3137L16.6168 18.031C15.0769 19.263 13.124 20 11 20C6.032 20 2 15.968 2 11C2 6.032 6.032 2 11 2C15.968 2 20 6.032 20 11C20 13.124 19.263 15.0769 18.031 16.6168ZM16.0247 15.8748C17.2475 14.6146 18 12.8956 18 11C18 7.1325 14.8675 4 11 4C7.1325 4 4 7.1325 4 11C4 14.8675 7.1325 18 11 18C12.8956 18 14.6146 17.2475 15.8748 16.0247L16.0247 15.8748Z"></path></symbol><symbol viewBox="0 0 24 24" id="map-pin-line"><path d="M12 20.8995L16.9497 15.9497C19.6834 13.2161 19.6834 8.78392 16.9497 6.05025C14.2161 3.31658 9.78392 3.31658 7.05025 6.05025C4.31658 8.78392 4.31658 13.2161 7.05025 15.9497L12 20.8995ZM12 23.7279L5.63604 17.364C2.12132 13.8492 2.12132 8.15076 5.63604 4.63604C9.15076 1.12132 14.8492 1.12132 18.364 4.63604C21.8787 8.15076 21.8787 13.8492 18.364 17.364L12 23.7279ZM12 13C13.1046 13 14 12.1046 14 11C14 9.89543 13.1046 9 12 9C10.8954 9 10 9.89543 10 11C10 12.1046 10.8954 13 12 13ZM12 15C9.79086 15 8 13.2091 8 11C8 8.79086 9.79086 7 12 7C14.2091 7 16 8.79086 16 11C16 13.2091 14.2091 15 12 15Z"></path></symbol><symbol viewBox="0 0 24 24" id="arrow-right-line"><path d="M16.1716 10.9999L10.8076 5.63589L12.2218 4.22168L20 11.9999L12.2218 19.778L10.8076 18.3638L16.1716 12.9999H4V10.9999H16.1716Z"></path></symbol><symbol viewBox="0 0 24 24" id="task-line"><path d="M19 4H5V20H19V4ZM3 2.9918C3 2.44405 3.44749 2 3.9985 2H19.9997C20.5519 2 20.9996 2.44772 20.9997 3L21 20.9925C21 21.5489 20.5551 22 20.0066 22H3.9934C3.44476 22 3 21.5447 3 21.0082V2.9918ZM11.2929 13.1213L15.5355 8.87868L16.9497 10.2929L11.2929 15.9497L7.40381 12.0607L8.81802 10.6464L11.2929 13.1213Z"></path></symbol><symbol viewBox="0 0 24 24" id="sticky-note-line"><path d="M21 15L15 20.996L4.00221 21C3.4487 21 3 20.5551 3 20.0066V3.9934C3 3.44476 3.44495 3 3.9934 3H20.0066C20.5552 3 21 3.45576 21 4.00247V15ZM19 5H5V19H13V14C13 13.4872 13.386 13.0645 13.8834 13.0067L14 13L19 12.999V5ZM18.171 14.999L15 15V18.169L18.171 14.999Z"></path></symbol><symbol viewBox="0 0 24 24" id="bookmark-fill"><path d="M5 2H19C19.5523 2 20 2.44772 20 3V22.1433C20 22.4194 19.7761 22.6434 19.5 22.6434C19.4061 22.6434 19.314 22.6168 19.2344 22.5669L12 18.0313L4.76559 22.5669C4.53163 22.7136 4.22306 22.6429 4.07637 22.4089C4.02647 22.3293 4 22.2373 4 22.1433V3C4 2.44772 4.44772 2 5 2Z"></path></symbol><symbol viewBox="0 0 24 24" id="lock-line"><path d="M19 10H20C20.5523 10 21 10.4477 21 11V21C21 21.5523 20.5523 22 20 22H4C3.44772 22 3 21.5523 3 21V11C3 10.4477 3.44772 10 4 10H5V9C5 5.13401 8.13401 2 12 2C15.866 2 19 5.13401 19 9V10ZM5 12V20H19V12H5ZM11 14H13V18H11V14ZM17 10V9C17 6.23858 14.7614 4 12 4C9.23858 4 7 6.23858 7 9V10H17Z"></path></symbol><symbol viewBox="0 0 24 24" id="lock-unlock-line"><path d="M7 10H20C20.5523 10 21 10.4477 21 11V21C21 21.5523 20.5523 22 20 22H4C3.44772 22 3 21.5523 3 21V11C3 10.4477 3.44772 10 4 10H5V9C5 5.13401 8.13401 2 12 2C14.7405 2 17.1131 3.5748 18.2624 5.86882L16.4731 6.76344C15.6522 5.12486 13.9575 4 12 4C9.23858 4 7 6.23858 7 9V10ZM5 12V20H19V12H5ZM10 15H14V17H10V15Z"></path></symbol><symbol viewBox="0 0 24 24" id="double-quotes-l"><path d="M4.58341 17.3211C3.55316 16.2274 3 15 3 13.0103C3 9.51086 5.45651 6.37366 9.03059 4.82318L9.92328 6.20079C6.58804 8.00539 5.93618 10.346 5.67564 11.822C6.21263 11.5443 6.91558 11.4466 7.60471 11.5105C9.40908 11.6778 10.8312 13.159 10.8312 15C10.8312 16.933 9.26416 18.5 7.33116 18.5C6.2581 18.5 5.23196 18.0095 4.58341 17.3211ZM14.5834 17.3211C13.5532 16.2274 13 15 13 13.0103C13 9.51086 15.4565 6.37366 19.0306 4.82318L19.9233 6.20079C16.588 8.00539 15.9362 10.346 15.6756 11.822C16.2126 11.5443 16.9156 11.4466 17.6047 11.5105C19.4091 11.6778 20.8312 13.159 20.8312 15C20.8312 16.933 19.2642 18.5 17.3312 18.5C16.2581 18.5 15.232 18.0095 14.5834 17.3211Z"></path></symbol><symbol viewBox="0 0 24 24" id="table-line"><path d="M4 8H20V5H4V8ZM14 19V10H10V19H14ZM16 19H20V10H16V19ZM8 19V10H4V19H8ZM3 3H21C21.5523 3 22 3.44772 22 4V20C22 20.5523 21.5523 21 21 21H3C2.44772 21 2 20.5523 2 20V4C2 3.44772 2.44772 3 3 3Z"></path></symbol><symbol viewBox="0 0 24 24" id="map-2-line"><path d="M2 5L9 2L15 5L21.303 2.2987C21.5569 2.18992 21.8508 2.30749 21.9596 2.56131C21.9862 2.62355 22 2.69056 22 2.75827V19L15 22L9 19L2.69696 21.7013C2.44314 21.8101 2.14921 21.6925 2.04043 21.4387C2.01375 21.3765 2 21.3094 2 21.2417V5ZM16 19.3955L20 17.6812V5.03308L16 6.74736V19.3955ZM14 19.2639V6.73607L10 4.73607V17.2639L14 19.2639ZM8 17.2526V4.60451L4 6.31879V18.9669L8 17.2526Z"></path></symbol><symbol viewBox="0 0 24 24" id="pencil-fill"><path d="M12.8995 6.85453L17.1421 11.0972L7.24264 20.9967H3V16.754L12.8995 6.85453ZM14.3137 5.44032L16.435 3.319C16.8256 2.92848 17.4587 2.92848 17.8492 3.319L20.6777 6.14743C21.0682 6.53795 21.0682 7.17112 20.6777 7.56164L18.5563 9.68296L14.3137 5.44032Z"></path></symbol><symbol viewBox="0 0 24 24" id="more-fill"><path d="M5 10C3.9 10 3 10.9 3 12C3 13.1 3.9 14 5 14C6.1 14 7 13.1 7 12C7 10.9 6.1 10 5 10ZM19 10C17.9 10 17 10.9 17 12C17 13.1 17.9 14 19 14C20.1 14 21 13.1 21 12C21 10.9 20.1 10 19 10ZM12 10C10.9 10 10 10.9 10 12C10 13.1 10.9 14 12 14C13.1 14 14 13.1 14 12C14 10.9 13.1 10 12 10Z"></path></symbol><symbol viewBox="0 0 24 24" id="edit-circle-line"><path d="M12.6844 4.02547C12.4588 4.00646 12.2306 3.9967 12 3.9967C7.58172 3.9967 4 7.57843 4 11.9967C4 16.415 7.58172 19.9967 12 19.9967C16.4183 19.9967 20 16.415 20 11.9967C20 11.7662 19.9902 11.5379 19.9711 11.3123C19.8996 10.4646 19.6953 9.6442 19.368 8.87344L20.8682 7.37114C21.2031 8.01192 21.4706 8.6935 21.6613 9.40649C21.8213 10.0063 21.9258 10.6222 21.9723 11.248C21.9907 11.4952 22 11.7449 22 11.9967C22 17.5196 17.5228 21.9967 12 21.9967C6.47715 21.9967 2 17.5196 2 11.9967C2 6.47386 6.47715 1.9967 12 1.9967C12.2518 1.9967 12.5015 2.00601 12.7487 2.02431C13.3745 2.07081 13.9904 2.17542 14.5898 2.3358C15.3032 2.52609 15.9848 2.79359 16.6256 3.1285L15.1247 4.62934C14.3525 4.30143 13.5321 4.09707 12.6844 4.02547ZM20.4853 2.09721L21.8995 3.51142L12.7071 12.7038L11.2954 12.7063L11.2929 11.2896L20.4853 2.09721Z"></path></symbol><symbol viewBox="0 0 24 24" id="input-field"><path d="M8 5H11V19H8V21H16V19H13V5H16V3H8V5ZM2 7C1.44772 7 1 7.44772 1 8V16C1 16.5523 1.44772 17 2 17H8V15H3V9H8V7H2ZM16 9H21V15H16V17H22C22.5523 17 23 16.5523 23 16V8C23 7.44772 22.5523 7 22 7H16V9Z"></path></symbol><symbol viewBox="0 0 24 24" id="paint-fill"><path d="M19.2277 18.7323L20.9955 16.9645L22.7632 18.7323C23.7395 19.7086 23.7395 21.2915 22.7632 22.2678C21.7869 23.2441 20.204 23.2441 19.2277 22.2678C18.2514 21.2915 18.2514 19.7086 19.2277 18.7323ZM8.87861 1.07971L20.1923 12.3934C20.5828 12.7839 20.5828 13.4171 20.1923 13.8076L11.707 22.2929C11.3165 22.6834 10.6833 22.6834 10.2928 22.2929L1.80754 13.8076C1.41702 13.4171 1.41702 12.7839 1.80754 12.3934L9.58572 4.61525L7.4644 2.49393L8.87861 1.07971ZM10.9999 6.02946L3.92886 13.1005H18.071L10.9999 6.02946Z"></path></symbol><symbol viewBox="0 0 24 24" id="file-copy-2-line"><path d="M6.9998 6V3C6.9998 2.44772 7.44752 2 7.9998 2H19.9998C20.5521 2 20.9998 2.44772 20.9998 3V17C20.9998 17.5523 20.5521 18 19.9998 18H16.9998V20.9991C16.9998 21.5519 16.5499 22 15.993 22H4.00666C3.45059 22 3 21.5554 3 20.9991L3.0026 7.00087C3.0027 6.44811 3.45264 6 4.00942 6H6.9998ZM5.00242 8L5.00019 20H14.9998V8H5.00242ZM8.9998 6H16.9998V16H18.9998V4H8.9998V6ZM7 11H13V13H7V11ZM7 15H13V17H7V15Z"></path></symbol><symbol viewBox="0 0 24 24" id="archive-line"><path d="M3 10H2V4.00293C2 3.44903 2.45531 3 2.9918 3H21.0082C21.556 3 22 3.43788 22 4.00293V10H21V20.0015C21 20.553 20.5551 21 20.0066 21H3.9934C3.44476 21 3 20.5525 3 20.0015V10ZM19 10H5V19H19V10ZM4 5V8H20V5H4ZM9 12H15V14H9V12Z"></path></symbol><symbol viewBox="0 0 24 24" id="progress-5-line"><path d="M2 12C2 17.5228 6.47715 22 12 22C17.5228 22 22 17.5228 22 12C22 6.47715 17.5228 2 12 2C6.47715 2 2 6.47715 2 12ZM20 12C20 16.4183 16.4183 20 12 20C7.58172 20 4 16.4183 4 12C4 7.58172 7.58172 4 12 4C16.4183 4 20 7.58172 20 12ZM18 12C18 15.3137 15.3137 18 12 18C10.3431 18 8.84311 17.3284 7.75732 16.2426L12 12V6C15.3137 6 18 8.68629 18 12Z"></path></symbol><symbol viewBox="0 0 24 24" id="eye-line"><path d="M12.0003 3C17.3924 3 21.8784 6.87976 22.8189 12C21.8784 17.1202 17.3924 21 12.0003 21C6.60812 21 2.12215 17.1202 1.18164 12C2.12215 6.87976 6.60812 3 12.0003 3ZM12.0003 19C16.2359 19 19.8603 16.052 20.7777 12C19.8603 7.94803 16.2359 5 12.0003 5C7.7646 5 4.14022 7.94803 3.22278 12C4.14022 16.052 7.7646 19 12.0003 19ZM12.0003 16.5C9.51498 16.5 7.50026 14.4853 7.50026 12C7.50026 9.51472 9.51498 7.5 12.0003 7.5C14.4855 7.5 16.5003 9.51472 16.5003 12C16.5003 14.4853 14.4855 16.5 12.0003 16.5ZM12.0003 14.5C13.381 14.5 14.5003 13.3807 14.5003 12C14.5003 10.6193 13.381 9.5 12.0003 9.5C10.6196 9.5 9.50026 10.6193 9.50026 12C9.50026 13.3807 10.6196 14.5 12.0003 14.5Z"></path></symbol><symbol viewBox="0 0 24 24" id="eye-off-line"><path d="M17.8827 19.2968C16.1814 20.3755 14.1638 21.0002 12.0003 21.0002C6.60812 21.0002 2.12215 17.1204 1.18164 12.0002C1.61832 9.62282 2.81932 7.5129 4.52047 5.93457L1.39366 2.80777L2.80788 1.39355L22.6069 21.1925L21.1927 22.6068L17.8827 19.2968ZM5.9356 7.3497C4.60673 8.56015 3.6378 10.1672 3.22278 12.0002C4.14022 16.0521 7.7646 19.0002 12.0003 19.0002C13.5997 19.0002 15.112 18.5798 16.4243 17.8384L14.396 15.8101C13.7023 16.2472 12.8808 16.5002 12.0003 16.5002C9.51498 16.5002 7.50026 14.4854 7.50026 12.0002C7.50026 11.1196 7.75317 10.2981 8.19031 9.60442L5.9356 7.3497ZM12.9139 14.328L9.67246 11.0866C9.5613 11.3696 9.50026 11.6777 9.50026 12.0002C9.50026 13.3809 10.6196 14.5002 12.0003 14.5002C12.3227 14.5002 12.6309 14.4391 12.9139 14.328ZM20.8068 16.5925L19.376 15.1617C20.0319 14.2268 20.5154 13.1586 20.7777 12.0002C19.8603 7.94818 16.2359 5.00016 12.0003 5.00016C11.1544 5.00016 10.3329 5.11773 9.55249 5.33818L7.97446 3.76015C9.22127 3.26959 10.5793 3.00016 12.0003 3.00016C17.3924 3.00016 21.8784 6.87992 22.8189 12.0002C22.5067 13.6998 21.8038 15.2628 20.8068 16.5925ZM11.7229 7.50857C11.8146 7.50299 11.9071 7.50016 12.0003 7.50016C14.4855 7.50016 16.5003 9.51488 16.5003 12.0002C16.5003 12.0933 16.4974 12.1858 16.4919 12.2775L11.7229 7.50857Z"></path></symbol><symbol viewBox="0 0 24 24" id="menu-line"><path d="M3 4H21V6H3V4ZM3 11H21V13H3V11ZM3 18H21V20H3V18Z"></path></symbol><symbol viewBox="0 0 24 24" id="share-line"><path d="M13.1202 17.0228L8.92129 14.7324C8.19135 15.5125 7.15261 16 6 16C3.79086 16 2 14.2091 2 12C2 9.79086 3.79086 8 6 8C7.15255 8 8.19125 8.48746 8.92118 9.26746L13.1202 6.97713C13.0417 6.66441 13 6.33707 13 6C13 3.79086 14.7909 2 17 2C19.2091 2 21 3.79086 21 6C21 8.20914 19.2091 10 17 10C15.8474 10 14.8087 9.51251 14.0787 8.73246L9.87977 11.0228C9.9583 11.3355 10 11.6629 10 12C10 12.3371 9.95831 12.6644 9.87981 12.9771L14.0788 15.2675C14.8087 14.4875 15.8474 14 17 14C19.2091 14 21 15.7909 21 18C21 20.2091 19.2091 22 17 22C14.7909 22 13 20.2091 13 18C13 17.6629 13.0417 17.3355 13.1202 17.0228ZM6 14C7.10457 14 8 13.1046 8 12C8 10.8954 7.10457 10 6 10C4.89543 10 4 10.8954 4 12C4 13.1046 4.89543 14 6 14ZM17 8C18.1046 8 19 7.10457 19 6C19 4.89543 18.1046 4 17 4C15.8954 4 15 4.89543 15 6C15 7.10457 15.8954 8 17 8ZM17 20C18.1046 20 19 19.1046 19 18C19 16.8954 18.1046 16 17 16C15.8954 16 15 16.8954 15 18C15 19.1046 15.8954 20 17 20Z"></path></symbol><symbol viewBox="0 0 24 24" id="briefcase-line"><path d="M7 5V2C7 1.44772 7.44772 1 8 1H16C16.5523 1 17 1.44772 17 2V5H21C21.5523 5 22 5.44772 22 6V20C22 20.5523 21.5523 21 21 21H3C2.44772 21 2 20.5523 2 20V6C2 5.44772 2.44772 5 3 5H7ZM4 16V19H20V16H4ZM4 14H20V7H4V14ZM9 3V5H15V3H9ZM11 11H13V13H11V11Z"></path></symbol><symbol viewBox="0 0 24 24" id="settings-2-line"><path d="M8.68637 4.00008L11.293 1.39348C11.6835 1.00295 12.3167 1.00295 12.7072 1.39348L15.3138 4.00008H19.0001C19.5524 4.00008 20.0001 4.4478 20.0001 5.00008V8.68637L22.6067 11.293C22.9972 11.6835 22.9972 12.3167 22.6067 12.7072L20.0001 15.3138V19.0001C20.0001 19.5524 19.5524 20.0001 19.0001 20.0001H15.3138L12.7072 22.6067C12.3167 22.9972 11.6835 22.9972 11.293 22.6067L8.68637 20.0001H5.00008C4.4478 20.0001 4.00008 19.5524 4.00008 19.0001V15.3138L1.39348 12.7072C1.00295 12.3167 1.00295 11.6835 1.39348 11.293L4.00008 8.68637V5.00008C4.00008 4.4478 4.4478 4.00008 5.00008 4.00008H8.68637ZM6.00008 6.00008V9.5148L3.5148 12.0001L6.00008 14.4854V18.0001H9.5148L12.0001 20.4854L14.4854 18.0001H18.0001V14.4854L20.4854 12.0001L18.0001 9.5148V6.00008H14.4854L12.0001 3.5148L9.5148 6.00008H6.00008ZM12.0001 16.0001C9.79094 16.0001 8.00008 14.2092 8.00008 12.0001C8.00008 9.79094 9.79094 8.00008 12.0001 8.00008C14.2092 8.00008 16.0001 9.79094 16.0001 12.0001C16.0001 14.2092 14.2092 16.0001 12.0001 16.0001ZM12.0001 14.0001C13.1047 14.0001 14.0001 13.1047 14.0001 12.0001C14.0001 10.8955 13.1047 10.0001 12.0001 10.0001C10.8955 10.0001 10.0001 10.8955 10.0001 12.0001C10.0001 13.1047 10.8955 14.0001 12.0001 14.0001Z"></path></symbol><symbol viewBox="0 0 24 24" id="bar-chart-2-line"><path d="M2 13H8V21H2V13ZM16 8H22V21H16V8ZM9 3H15V21H9V3ZM4 15V19H6V15H4ZM11 5V19H13V5H11ZM18 10V19H20V10H18Z"></path></symbol><symbol viewBox="0 0 24 24" id="information-line"><path d="M12 22C6.47715 22 2 17.5228 2 12C2 6.47715 6.47715 2 12 2C17.5228 2 22 6.47715 22 12C22 17.5228 17.5228 22 12 22ZM12 20C16.4183 20 20 16.4183 20 12C20 7.58172 16.4183 4 12 4C7.58172 4 4 7.58172 4 12C4 16.4183 7.58172 20 12 20ZM11 7H13V9H11V7ZM11 11H13V17H11V11Z"></path></symbol><symbol viewBox="0 0 24 24" id="links-line"><path d="M13.0607 8.11097L14.4749 9.52518C17.2086 12.2589 17.2086 16.691 14.4749 19.4247L14.1214 19.7782C11.3877 22.5119 6.95555 22.5119 4.22188 19.7782C1.48821 17.0446 1.48821 12.6124 4.22188 9.87874L5.6361 11.293C3.68348 13.2456 3.68348 16.4114 5.6361 18.364C7.58872 20.3166 10.7545 20.3166 12.7072 18.364L13.0607 18.0105C15.0133 16.0578 15.0133 12.892 13.0607 10.9394L11.6465 9.52518L13.0607 8.11097ZM19.7782 14.1214L18.364 12.7072C20.3166 10.7545 20.3166 7.58872 18.364 5.6361C16.4114 3.68348 13.2456 3.68348 11.293 5.6361L10.9394 5.98965C8.98678 7.94227 8.98678 11.1081 10.9394 13.0607L12.3536 14.4749L10.9394 15.8891L9.52518 14.4749C6.79151 11.7413 6.79151 7.30911 9.52518 4.57544L9.87874 4.22188C12.6124 1.48821 17.0446 1.48821 19.7782 4.22188C22.5119 6.95555 22.5119 11.3877 19.7782 14.1214Z"></path></symbol><symbol viewBox="0 0 24 24" id="hashtag"><path d="M7.78428 14L8.2047 10H4V8H8.41491L8.94043 3H10.9514L10.4259 8H14.4149L14.9404 3H16.9514L16.4259 8H20V10H16.2157L15.7953 14H20V16H15.5851L15.0596 21H13.0486L13.5741 16H9.58509L9.05957 21H7.04855L7.57407 16H4V14H7.78428ZM9.7953 14H13.7843L14.2047 10H10.2157L9.7953 14Z"></path></symbol><symbol viewBox="0 0 24 24" id="file-shred-line"><path d="M6 12H18V8H14V4H6V12ZM4 12V2.9954C4 2.44565 4.44484 2 4.99558 2H15L19.9997 7L20 12H22V14H2V12H4ZM3 16H5V22H3V16ZM19 16H21V22H19V16ZM15 16H17V22H15V16ZM11 16H13V22H11V16ZM7 16H9V22H7V16Z"></path></symbol><symbol viewBox="0 0 24 24" id="arrow-left-up-box-line"><path d="M20 3H4C3.44772 3 3 3.44772 3 4V20C3 20.5523 3.44772 21 4 21H20C20.5523 21 21 20.5523 21 20V4C21 3.44772 20.5523 3 20 3ZM5 19V5H19V19H5ZM8 8V16H10V11.4142L15.2929 16.7071L16.7071 15.2929L11.4142 10H16V8H8Z"></path></symbol><symbol viewBox="0 0 24 24" id="emotion-line"><path d="M12 22C6.47715 22 2 17.5228 2 12C2 6.47715 6.47715 2 12 2C17.5228 2 22 6.47715 22 12C22 17.5228 17.5228 22 12 22ZM12 20C16.4183 20 20 16.4183 20 12C20 7.58172 16.4183 4 12 4C7.58172 4 4 7.58172 4 12C4 16.4183 7.58172 20 12 20ZM8 13H16C16 15.2091 14.2091 17 12 17C9.79086 17 8 15.2091 8 13ZM8 11C7.17157 11 6.5 10.3284 6.5 9.5C6.5 8.67157 7.17157 8 8 8C8.82843 8 9.5 8.67157 9.5 9.5C9.5 10.3284 8.82843 11 8 11ZM16 11C15.1716 11 14.5 10.3284 14.5 9.5C14.5 8.67157 15.1716 8 16 8C16.8284 8 17.5 8.67157 17.5 9.5C17.5 10.3284 16.8284 11 16 11Z"></path></symbol><symbol viewBox="0 0 24 24" id="shopping-basket-line"><path d="M12.0049 2C15.3186 2 18.0049 4.68629 18.0049 8V9H22.0049V11H20.8379L20.0813 20.083C20.0381 20.6013 19.6048 21 19.0847 21H4.92502C4.40493 21 3.97166 20.6013 3.92847 20.083L3.17088 11H2.00488V9H6.00488V8C6.00488 4.68629 8.69117 2 12.0049 2ZM18.8309 11H5.17788L5.84488 19H18.1639L18.8309 11ZM13.0049 13V17H11.0049V13H13.0049ZM9.00488 13V17H7.00488V13H9.00488ZM17.0049 13V17H15.0049V13H17.0049ZM12.0049 4C9.86269 4 8.1138 5.68397 8.00978 7.80036L8.00488 8V9H16.0049V8C16.0049 5.8578 14.3209 4.10892 12.2045 4.0049L12.0049 4Z"></path></symbol></svg>